# xmcd
#
# Track frame offsets: 
#        150
#        24629
#        54271
#        90940
#        117992
#        134701
#        174353
#        198532
#        223958
#        246555
#        267291
#        291813
#        311717
#        333792
#
# Disc length: 4624 seconds
#
# Revision: 2
# Processed by: cddbd v1.5.2PL0 Copyright (c) Steve Scherf et al.
# Submitted via: ExactAudioCopyFreeDBPlugin 1.0
#
DISCID=d5120e0e
DTITLE=Ray Charles - Fifteen Classic Albums Plus Bonus Singles [Real G
DTITLE=one Music]
DYEAR=2012
DGENRE=Rhythm and Blues
TTITLE0=Hallelujah, I Love Her So (with Milt Jackson)
TTITLE1=Blue Genius (with Milt Jackson)
TTITLE2=X-Ray Blues (with Milt Jackson)
TTITLE3=Soul Meeting (with Milt Jackson)
TTITLE4=Love on My Mind (with Milt Jackson)
TTITLE5=Bag's of Blues (with Milt Jackson)
TTITLE6=The Genius After Hours
TTITLE7=Ain't Misbehavin'
TTITLE8=Dawn Ray
TTITLE9=Joy Ride
TTITLE10=Hornful Soul
TTITLE11=The Man I Love
TTITLE12=Charlesville
TTITLE13=Music, Music, Music
EXTD=
EXTT0=
EXTT1=
EXTT2=
EXTT3=
EXTT4=
EXTT5=
EXTT6=
EXTT7=
EXTT8=
EXTT9=
EXTT10=
EXTT11=
EXTT12=
EXTT13=
PLAYORDER=
